<?xml version="1.0" standalone="no"?>
<!DOCTYPE svg PUBLIC "-//W3C//DTD SVG 20010904//EN"
 "http://www.w3.org/TR/2001/REC-SVG-20010904/DTD/svg10.dtd">
<svg version="1.0" xmlns="http://www.w3.org/2000/svg"
 width="496.000000pt" height="496.000000pt" viewBox="0 0 496.000000 496.000000"
 preserveAspectRatio="xMidYMid meet">
<metadata>
Created by potrace 1.14, written by Peter Selinger 2001-2017
</metadata>
<g transform="translate(0.000000,496.000000) scale(0.100000,-0.100000)"
fill="#000000" stroke="none">
<path d="M2157 4404 c-2 -3 -22 -7 -44 -9 -46 -5 -84 -23 -116 -56 -24 -24
-42 -57 -39 -71 1 -5 -2 -8 -7 -8 -7 0 -25 -61 -23 -77 2 -13 -71 -143 -80
-143 -6 0 -8 -3 -5 -7 14 -13 -111 -102 -135 -95 -5 1 -8 -3 -8 -9 0 -5 -4 -7
-10 -4 -5 3 -10 1 -10 -4 0 -6 -6 -11 -14 -11 -12 0 -76 -63 -116 -116 -15
-19 -46 -82 -48 -97 -1 -4 -13 -27 -27 -52 -13 -25 -24 -46 -24 -48 0 -1 -4
-15 -10 -30 -6 -16 -11 -33 -11 -38 0 -5 -4 -17 -9 -27 -25 -45 -102 -322 -94
-336 4 -5 1 -6 -5 -2 -6 4 -10 -1 -10 -11 1 -10 -6 -44 -14 -75 -9 -31 -13
-59 -10 -62 3 -3 1 -6 -4 -6 -5 0 -10 -19 -12 -42 -1 -22 -6 -46 -9 -52 -4 -5
-8 -23 -10 -40 -6 -59 -29 -146 -41 -158 -6 -6 -19 2 -35 21 -14 17 -28 31
-31 31 -3 0 -58 52 -123 116 -177 174 -303 289 -303 278 0 -4 -9 3 -20 16 -11
13 -20 20 -20 16 0 -4 -13 2 -29 13 -16 12 -34 21 -40 21 -6 0 -11 5 -11 12 0
6 -3 9 -6 5 -4 -3 -20 1 -36 9 -19 10 -27 11 -23 4 4 -7 -4 -4 -19 5 -14 10
-35 15 -45 12 -10 -2 -25 -1 -32 4 -7 4 -18 4 -24 0 -5 -4 -21 -8 -34 -9 -57
-3 -133 -92 -137 -162 -1 -14 -3 -27 -4 -30 -1 -3 -1 -9 0 -15 1 -5 3 -30 5
-55 2 -25 6 -56 9 -70 4 -14 9 -38 12 -55 3 -16 9 -34 14 -40 4 -5 9 -13 9
-17 4 -26 61 -148 89 -189 9 -15 26 -41 37 -58 10 -17 23 -31 27 -31 4 0 8 -5
8 -10 0 -6 21 -32 48 -58 55 -55 142 -127 142 -118 0 4 11 -4 25 -18 14 -14
37 -29 50 -32 14 -3 25 -10 25 -15 0 -5 7 -9 15 -9 8 0 15 -4 15 -10 0 -5 5
-10 11 -10 6 0 37 -11 68 -24 55 -24 84 -34 99 -37 4 0 13 -5 20 -11 6 -6 12
-8 12 -4 0 4 13 0 30 -9 16 -8 40 -15 53 -15 12 0 27 -4 32 -9 6 -5 30 -12 55
-15 76 -10 103 -21 106 -41 6 -40 -32 -58 -60 -30 -18 18 -86 30 -86 15 0 -6
-8 -10 -17 -10 -9 0 -13 -3 -10 -7 4 -3 1 -16 -7 -28 -8 -12 -13 -38 -12 -59
1 -21 -2 -40 -6 -43 -5 -2 -6 -9 -2 -14 3 -6 8 -31 9 -57 4 -48 8 -77 26 -172
6 -30 12 -66 14 -80 6 -35 13 -65 15 -65 3 0 11 -39 13 -62 1 -13 5 -23 10
-23 4 0 7 -6 7 -13 0 -26 31 -76 58 -95 15 -11 39 -18 54 -16 25 2 29 -2 42
-44 26 -83 52 -150 64 -165 7 -8 14 -24 16 -34 2 -11 16 -37 31 -59 14 -21 33
-53 41 -70 8 -17 24 -41 34 -52 11 -12 20 -26 20 -31 0 -6 9 -16 20 -23 11 -7
20 -17 20 -23 0 -24 321 -315 348 -315 6 0 12 -3 14 -7 10 -24 257 -153 292
-153 10 0 26 -5 36 -10 10 -6 30 -11 44 -12 15 -1 26 -5 26 -8 0 -3 10 -5 23
-6 60 -3 125 -11 135 -18 7 -4 12 -4 12 1 0 4 28 8 63 9 34 1 82 5 107 9 25 4
51 8 58 8 6 0 12 3 12 7 0 4 10 6 22 5 41 -3 258 93 324 144 12 9 32 23 44 31
13 8 38 27 55 42 18 16 38 28 45 28 8 0 10 3 7 7 -8 7 34 39 46 35 4 -1 7 4 7
12 0 7 10 20 23 29 12 8 33 24 46 36 13 11 28 21 33 21 5 0 6 5 3 10 -3 6 -1
10 6 10 7 0 10 3 7 6 -3 3 13 24 36 47 24 23 51 56 62 72 10 17 24 34 31 38 7
4 13 13 13 18 0 6 9 23 20 39 11 15 17 30 13 34 -3 3 -2 6 4 6 11 0 80 126 85
156 2 11 7 22 12 26 9 6 16 27 18 56 1 6 5 12 10 12 4 0 8 10 8 23 0 35 17 52
53 53 34 1 80 31 71 46 -3 4 -1 8 4 8 5 0 14 12 20 28 6 15 14 36 18 47 4 11
8 23 9 28 2 4 3 8 5 10 1 1 3 11 4 22 2 18 15 83 22 110 29 121 46 315 31 375
-3 14 -6 28 -6 32 -1 4 -12 18 -25 32 l-23 26 -48 -25 c-57 -31 -88 -26 -83
13 3 27 26 37 103 46 17 2 30 5 30 6 0 1 8 3 17 5 10 2 49 13 87 25 39 12 72
20 75 18 2 -2 13 6 25 16 12 11 21 16 21 11 0 -4 11 0 25 9 14 9 29 14 34 11
5 -2 12 2 15 10 3 8 9 14 13 13 11 -3 76 32 85 46 4 6 8 7 8 3 0 -9 120 71
132 88 4 6 8 7 8 4 0 -9 112 104 136 137 10 14 24 31 30 38 19 20 104 183 104
200 0 9 5 16 12 16 6 0 9 3 5 6 -3 4 0 22 8 40 8 19 14 37 15 39 0 3 0 6 1 8
2 8 9 36 14 62 3 16 8 31 11 34 2 2 -1 10 -7 18 -6 7 -7 13 -3 13 5 0 9 20 10
45 0 25 -5 45 -11 45 -5 0 -3 5 5 10 12 8 12 10 1 10 -8 0 -12 3 -8 6 9 9 -31
84 -48 91 -8 3 -12 9 -9 14 5 8 -10 13 -19 7 -2 -2 -10 2 -18 9 -8 6 -27 14
-42 17 -15 2 -31 7 -37 11 -5 3 -10 2 -10 -2 0 -5 -15 -8 -32 -7 -18 1 -49 -4
-68 -13 -90 -39 -168 -79 -164 -84 2 -3 -7 -11 -20 -17 -22 -10 -119 -97 -243
-219 -34 -35 -68 -63 -75 -63 -6 0 -8 -3 -5 -6 7 -7 -82 -94 -96 -94 -5 0 -5
-4 -2 -10 3 -5 0 -10 -7 -10 -7 0 -23 -12 -35 -27 -13 -14 -23 -21 -23 -14 0
7 -4 9 -10 6 -5 -3 -10 -3 -11 2 -1 19 -8 60 -13 86 -3 15 -8 39 -11 55 -3 15
-8 35 -11 45 -3 10 -7 30 -9 45 -3 15 -7 38 -10 52 -4 14 -11 43 -15 65 -5 22
-16 65 -25 95 -9 30 -17 62 -19 70 -1 8 -5 22 -8 30 -7 16 -19 63 -25 95 -2
11 -8 22 -13 23 -6 2 -8 7 -5 12 5 8 -34 127 -65 195 -9 22 -21 51 -25 65 -4
14 -14 33 -23 43 -8 9 -11 17 -7 17 4 0 1 8 -8 18 -10 10 -14 22 -10 25 3 4 1
7 -5 7 -7 0 -12 6 -12 13 0 28 -144 159 -170 155 -13 -2 -88 45 -111 69 -32
35 -70 90 -73 106 -3 13 -13 41 -26 72 -5 11 -16 45 -26 75 -27 86 -102 142
-184 136 -16 -1 -30 2 -30 7 0 4 -4 6 -9 2 -5 -3 -22 -7 -38 -9 -54 -8 -78
-16 -81 -26 -2 -5 -11 -10 -20 -10 -9 0 -28 -6 -42 -13 -14 -7 -41 -14 -60
-16 -19 -2 -38 -8 -42 -15 -4 -6 -8 -6 -8 -1 0 6 -11 10 -25 10 -14 0 -25 -4
-25 -8 0 -5 -5 -5 -12 -1 -6 4 -29 8 -52 10 -22 2 -42 8 -44 13 -2 5 -9 8 -17
5 -7 -3 -16 0 -20 5 -3 6 -11 9 -16 6 -5 -4 -9 -1 -9 4 0 6 -10 11 -23 11 -13
0 -27 4 -33 10 -5 5 -26 11 -46 14 -21 2 -41 7 -46 10 -5 3 -12 3 -15 0z"/>
</g>
</svg>
